<?xml version="1.0" standalone="no"?><!DOCTYPE svg PUBLIC "-//W3C//DTD SVG 1.1//EN" "http://www.w3.org/Graphics/SVG/1.1/DTD/svg11.dtd"><svg height="90" node-id="1" sillyvg="true" template-height="90" template-width="90" version="1.1" viewBox="0 0 90 90" width="90" xmlns="http://www.w3.org/2000/svg" xmlns:xlink="http://www.w3.org/1999/xlink"><defs node-id="20"><linearGradient gradientUnits="objectBoundingBox" id="未命名的渐变_21" node-id="5" spreadMethod="pad" x1="44.44" x2="44.44" y1="39.13" y2="14"><stop offset="0" stop-color="#006ea6"></stop><stop offset="1" stop-color="#34b7ea"></stop></linearGradient><linearGradient gradientUnits="objectBoundingBox" id="未命名的渐变_10" node-id="8" spreadMethod="pad" x1="45.08" x2="45.08" y1="81" y2="75"><stop offset="0" stop-color="#36bbff"></stop><stop offset="1" stop-color="#77d1ff"></stop></linearGradient><linearGradient gradientUnits="objectBoundingBox" id="未命名的渐变_33" node-id="11" spreadMethod="pad" x1="45" x2="45" y1="31" y2="23.8"><stop offset="0" stop-color="#77d1ff"></stop><stop offset="1" stop-color="#3bbdff"></stop></linearGradient></defs><path d="M 46.16 14.15 C 45.28 11.11 42.50 9.02 39.34 9.00 L 7.47 9.00 C 4.83 9.03 2.70 11.19 2.71 13.83 L 2.71 32.37 L 40.87 32.37 L 40.87 39.13 L 86.18 39.13 L 86.18 21.71 C 86.19 19.07 84.06 16.91 81.42 16.88 L 49.82 16.88 C 48.16 16.78 46.72 15.71 46.16 14.15 Z" fill="#34b7ea" fill-rule="nonzero" node-id="41" stroke="none" target-height="30.130001" target-width="83.49227" target-x="2.69886" target-y="9"></path><path d="M 81.42 16.88 L 49.82 16.88 C 48.16 16.78 46.72 15.71 46.16 14.15 C 46.16 14.10 46.16 14.05 46.16 14.00 L 2.71 14.00 L 2.71 30.26 L 40.87 30.26 L 40.87 39.13 L 86.18 39.13 L 86.18 21.71 C 86.19 19.07 84.06 16.91 81.42 16.88 Z" fill="url(#未命名的渐变_21)" fill-rule="nonzero" node-id="43" stroke="none" target-height="25.130001" target-width="83.48113" target-x="2.71" target-y="14"></path><path d="M 82.74 81.00 L 7.47 81.00 C 4.91 80.94 2.82 78.90 2.71 76.34 L 0.00 28.94 C -0.07 27.62 0.40 26.33 1.30 25.36 C 2.20 24.39 3.45 23.83 4.77 23.80 L 85.23 23.80 C 86.55 23.83 87.80 24.39 88.70 25.36 C 89.60 26.33 90.07 27.62 90.00 28.94 L 87.45 76.28 C 87.40 78.86 85.32 80.95 82.74 81.00 Z" fill="#77d1ff" fill-rule="nonzero" node-id="45" stroke="none" target-height="57.2" target-width="90.14142" target-x="-0.07071227" target-y="23.8"></path><path d="M 2.63 75.00 L 2.71 76.34 C 2.82 78.90 4.91 80.94 7.47 81.00 L 82.74 81.00 C 85.32 80.95 87.40 78.86 87.45 76.28 L 87.52 75.00 Z" fill="url(#未命名的渐变_10)" fill-rule="nonzero" node-id="47" stroke="none" target-height="6" target-width="84.89" target-x="2.63" target-y="75"></path><path d="M 89.88 31.00 L 90.00 28.94 C 90.07 27.62 89.60 26.33 88.71 25.36 C 87.81 24.39 86.56 23.83 85.24 23.80 L 4.77 23.80 C 3.45 23.83 2.20 24.39 1.30 25.36 C 0.40 26.33 -0.07 27.62 0.00 28.94 L 0.13 31.00 Z" fill="url(#未命名的渐变_33)" fill-rule="nonzero" node-id="49" stroke="none" target-height="7.200001" target-width="90.14139" target-x="-0.07071227" target-y="23.8"></path></svg>